<?xml version="1.0" encoding="utf-8"?>
<!-- Generator: Adobe Illustrator 25.4.1, SVG Export Plug-In . SVG Version: 6.00 Build 0)  -->
<svg version="1.1" id="Layer_1" xmlns="http://www.w3.org/2000/svg" xmlns:xlink="http://www.w3.org/1999/xlink" x="0px" y="0px"
	 viewBox="0 0 380.33 210.62" style="enable-background:new 0 0 380.33 210.62;" xml:space="preserve">
<g>
	<path d="M21.15,111.73v-10.66h9.01v-11.1h-9.01v-2.84c0-2.59,2-4.34,5.09-4.34c1.25,0,2.67,0.25,3.92,0.5v-12.1
		c-2.84-0.92-6.26-1.5-9.43-1.5c-9.09,0-15.19,6.93-15.19,17.27v3H0.04v11.1h5.51v10.66H21.15z"/>
	<path d="M124.46,111.73c0-0.08-0.01-0.15-0.01-0.23c0-5.42,3.59-9.51,8.68-9.51c5.01,0,8.68,4.09,8.68,9.51
		c0,0.08-0.01,0.15-0.01,0.23h14.95V70.78h-15.6v24.2h-0.83c-2.84-3.92-7.01-6.09-12.52-6.09c-11.26,0-19.02,8.93-19.02,22.61
		c0,0.08,0.01,0.15,0.01,0.23H124.46z"/>
	<path d="M133.28,57.57c14.77,0,24.28-8.51,24.28-22.61c0-14.02-9.51-22.61-24.28-22.61c-14.94,0-24.36,8.51-24.36,22.61
		C108.91,48.98,118.42,57.57,133.28,57.57z M133.28,25.45c5.09,0,8.68,3.92,8.68,9.51s-3.59,9.51-8.68,9.51
		c-5.17,0-8.68-3.92-8.68-9.51S128.1,25.45,133.28,25.45z"/>
	<path d="M47.61,111.73c0-0.08-0.01-0.15-0.01-0.23c0-5.59,3.5-9.51,8.68-9.51c5.09,0,8.68,3.92,8.68,9.51
		c0,0.08-0.01,0.15-0.01,0.23h15.6c0-0.08,0.01-0.15,0.01-0.23c0-14.02-9.51-22.61-24.28-22.61c-14.93,0-24.36,8.51-24.36,22.61
		c0,0.08,0.01,0.15,0.01,0.23H47.61z"/>
	<rect x="86.82" y="70.78" width="15.6" height="40.95"/>
	<path d="M5.51,40.97c0,9.93,6.09,16.6,15.52,16.6c2.67,0,6.68-0.5,9.43-1.5V45.22c-1.34,0.33-3,0.58-4.17,0.58
		c-3.09,0-5.09-2.25-5.09-5.59V24.53h9.01v-11.1h-9.01V0H8.93L6.09,13.43H0v11.1h5.51V40.97z"/>
	<polygon points="65.1,56.49 70.36,31.79 71.19,31.79 76.37,56.49 96.23,56.49 108.41,13.43 92.89,13.43 86.13,41.14 85.3,41.14 
		77.79,13.43 63.6,13.43 56.84,40.72 56.01,40.72 49.17,13.43 33.15,13.43 45.16,56.49 	"/>
</g>
<g>
	<path d="M191.01,118.76c0-7.39,6.31-12.86,18.76-14.27l11.62-1.41v-1.66c0-5.64-4.07-9.3-10.95-9.3c-6.31,0-10.46,3.07-10.37,8.3
		h-6.97c0-8.88,6.89-14.52,17.43-14.52c10.87,0,17.76,6.14,17.76,15.69v27.8h-6.89v-6.14h-0.75c-2.99,4.81-7.88,7.47-14.61,7.47
		C196.98,130.71,191.01,125.98,191.01,118.76z M221.38,112.7v-3.73l-11.62,1.33c-8.55,1.08-11.87,4.4-11.87,8.3
		c0,3.98,3.49,6.39,9.13,6.39C215.57,124.98,221.38,119.75,221.38,112.7z"/>
	<path d="M280.73,108.38c0,13.11-9.38,22.66-21.58,22.66c-6.72,0-12.37-2.9-15.44-7.88h-0.75v25.31h-6.89v-61h6.89v6.39h0.75
		c3.07-5.06,8.46-8.05,15.35-8.05C271.27,85.81,280.73,95.27,280.73,108.38z M242.72,108.38c0,9.21,6.56,16.43,15.6,16.43
		c8.96,0,15.52-7.22,15.52-16.43c0-9.38-6.56-16.35-15.52-16.35C249.27,92.03,242.72,99.17,242.72,108.38z"/>
	<path d="M331.85,108.38c0,13.11-9.38,22.66-21.58,22.66c-6.72,0-12.37-2.9-15.44-7.88h-0.75v25.31h-6.89v-61h6.89v6.39h0.75
		c3.07-5.06,8.47-8.05,15.35-8.05C322.39,85.81,331.85,95.27,331.85,108.38z M293.84,108.38c0,9.21,6.56,16.43,15.6,16.43
		c8.96,0,15.52-7.22,15.52-16.43c0-9.38-6.56-16.35-15.52-16.35C300.4,92.03,293.84,99.17,293.84,108.38z"/>
	<path d="M192.5,195.19h6.64c0.08,5.98,4.73,10.04,12.61,10.04c6.31,0,10.37-2.66,10.37-7.05c0-5.48-5.73-5.89-12.03-6.72
		c-7.8-0.91-16.85-2.99-16.85-12.53c0-8.13,6.81-13.11,16.85-13.11c10.46,0,17.59,5.56,17.59,14.19h-6.72
		c-0.08-5.14-4.48-8.38-10.96-8.38c-6.06,0-10.21,2.74-10.21,7.05c0,5.23,5.64,5.64,11.87,6.39c7.88,1,16.93,2.99,16.93,13.03
		c0,8.22-6.39,12.95-17.1,12.95C199.47,211.04,192.5,205.15,192.5,195.19z"/>
	<path d="M239.06,198.59v-25.64h-6.81v-5.48h6.81l1.58-13.53h5.39l-0.08,13.53h10.79v5.48h-10.79v25.4c0,3.98,2.49,6.81,6.47,6.81
		c1.24,0,3.4-0.33,4.98-0.83v5.56c-1.99,0.66-4.73,1.08-6.81,1.08C243.55,210.96,239.06,205.98,239.06,198.59z"/>
	<path d="M259.9,188.38c0-13.2,9.29-22.57,22.49-22.57c13.11,0,22.49,9.38,22.49,22.57c0,13.28-9.38,22.66-22.49,22.66
		C269.19,211.04,259.9,201.66,259.9,188.38z M297.99,188.38c0-9.46-6.56-16.35-15.6-16.35c-9.13,0-15.6,6.89-15.6,16.35
		c0,9.54,6.47,16.43,15.6,16.43C291.43,204.82,297.99,197.93,297.99,188.38z"/>
	<path d="M311.27,167.47H318v5.64h0.75c1.91-3.82,6.56-6.47,11.2-6.47c1.91,0,3.9,0.42,5.15,1.08v6.39
		c-2.16-0.91-4.65-1.24-6.22-1.24c-6.31,0-10.71,5.64-10.71,13.94v22.57h-6.89V167.47z"/>
	<path d="M336.01,187.89c0-12.78,9.29-22.08,22.24-22.08c12.78,0,21.99,9.29,21.99,22.16c0,0.83,0,1.83-0.08,2.74h-37.1
		c1,8.46,7.14,14.11,15.69,14.11c6.22,0,11.7-3.15,14.36-8.13l5.73,2.91c-3.4,7.14-10.96,11.45-20.25,11.45
		C345.47,211.04,336.01,201.33,336.01,187.89z M373.02,184.65c-1.25-7.55-7.14-12.62-15.1-12.62c-7.72,0-13.61,5.06-14.77,12.62
		H373.02z"/>
</g>
<g>
</g>
<g>
</g>
<g>
</g>
<g>
</g>
<g>
</g>
<g>
</g>
<g>
</g>
<g>
</g>
<g>
</g>
<g>
</g>
<g>
</g>
<g>
</g>
<g>
</g>
<g>
</g>
<g>
</g>
</svg>
